<svg xmlns="http://www.w3.org/2000/svg" xml:space="preserve" style="fill-rule:evenodd;clip-rule:evenodd;stroke-linejoin:round;stroke-miterlimit:2" viewBox="0 0 985 938">
	<path fill="currentColor" transform="translate(-735.662 -669.82) scale(1.54693)" d="M787.88 436.724a6.768 6.768 0 0 1 12.089 0l93.073 184.889a12 12 0 0 0 8.902 6.468l204.606 31.384a6.764 6.764 0 0 1 5.4 4.598c.8 2.431.15 5.1-1.67 6.899L963.202 816.613a12 12 0 0 0-3.401 10.466l33.378 204.281a6.767 6.767 0 0 1-9.78 7.11l-183.973-94.872a12.005 12.005 0 0 0-11.004 0L604.45 1038.47a6.767 6.767 0 0 1-9.78-7.11l33.378-204.281a12.006 12.006 0 0 0-3.401-10.466L477.568 670.962a6.768 6.768 0 0 1 3.736-11.497l204.601-31.384a12.004 12.004 0 0 0 8.902-6.468l93.073-184.889Z" />
	<path fill="#fff" d="M313.058 394.05h31.824l24.048 70.7h.288l22.752-70.7h31.824v102.81h-21.168V424h-.288l-25.2 72.86h-17.424l-25.2-72.14h-.288v72.14h-21.168V394.05Zm158.688 0h23.184l38.448 102.81h-23.472l-7.776-22.89h-38.448l-8.064 22.89h-22.752l38.88-102.81Zm-2.16 63.07h26.64l-12.96-37.73h-.288l-13.392 37.73Zm72.72-63.07h22.608v102.81h-22.608V394.05Zm42.48 0h22.464l42.912 68.97h.288v-68.97h21.168v102.81H649.01l-42.768-68.83h-.288v68.83h-21.168V394.05ZM327.602 542.22h44.352c6.624 0 12.792 1.06 18.504 3.17 5.712 2.11 10.656 5.28 14.832 9.5 4.176 4.23 7.44 9.51 9.792 15.84 2.352 6.34 3.528 13.78 3.528 22.32 0 7.49-.96 14.4-2.88 20.74-1.92 6.34-4.824 11.81-8.712 16.42-3.888 4.6-8.736 8.23-14.544 10.87-5.808 2.64-12.648 3.96-20.52 3.96h-44.352V542.22Zm22.608 83.81h20.16c3.264 0 6.432-.53 9.504-1.58 3.072-1.06 5.808-2.81 8.208-5.26 2.4-2.45 4.32-5.64 5.76-9.58 1.44-3.93 2.16-8.73 2.16-14.4 0-5.18-.504-9.86-1.512-14.04-1.008-4.17-2.664-7.75-4.968-10.72-2.304-2.98-5.352-5.26-9.144-6.84-3.792-1.59-8.472-2.38-14.04-2.38H350.21v64.8Zm84.096-83.81h22.608v102.82h-22.608V542.22Zm57.888 68.69c0 3.46.624 6.38 1.872 8.78 1.248 2.4 2.904 4.35 4.968 5.84 2.064 1.48 4.488 2.59 7.272 3.31 2.784.72 5.664 1.08 8.64 1.08 2.016 0 4.176-.17 6.48-.51 2.304-.33 4.464-.98 6.48-1.94s3.696-2.28 5.04-3.96c1.344-1.68 2.016-3.82 2.016-6.41 0-2.78-.888-5.04-2.664-6.77-1.776-1.72-4.104-3.16-6.984-4.32-2.88-1.15-6.144-2.16-9.792-3.02-3.648-.86-7.344-1.82-11.088-2.88a98.863 98.863 0 0 1-11.232-3.53c-3.648-1.39-6.912-3.19-9.792-5.4-2.88-2.21-5.208-4.97-6.984-8.28-1.776-3.31-2.664-7.32-2.664-12.02 0-5.28 1.128-9.87 3.384-13.75a30.62 30.62 0 0 1 8.856-9.72c3.648-2.6 7.776-4.52 12.384-5.76 4.608-1.25 9.216-1.88 13.824-1.88 5.376 0 10.536.6 15.48 1.8 4.944 1.2 9.336 3.15 13.176 5.84 3.84 2.68 6.888 6.12 9.144 10.29 2.256 4.18 3.384 9.24 3.384 15.19h-21.888c-.192-3.07-.84-5.61-1.944-7.63-1.104-2.01-2.568-3.6-4.392-4.75-1.824-1.15-3.912-1.97-6.264-2.45-2.352-.48-4.92-.72-7.704-.72-1.824 0-3.648.19-5.472.58-1.824.38-3.48 1.05-4.968 2.01a12.506 12.506 0 0 0-3.672 3.6c-.96 1.44-1.44 3.27-1.44 5.48 0 2.01.384 3.64 1.152 4.89.768 1.25 2.28 2.4 4.536 3.46 2.256 1.05 5.376 2.11 9.36 3.17 3.984 1.05 9.192 2.4 15.624 4.03 1.92.38 4.584 1.08 7.992 2.09 3.408 1 6.792 2.61 10.152 4.82 3.36 2.21 6.264 5.16 8.712 8.86 2.448 3.69 3.672 8.42 3.672 14.18 0 4.7-.912 9.07-2.736 13.1-1.824 4.04-4.536 7.52-8.136 10.44-3.6 2.93-8.064 5.21-13.392 6.84-5.328 1.64-11.496 2.45-18.504 2.45-5.664 0-11.16-.69-16.488-2.09-5.328-1.39-10.032-3.57-14.112-6.55-4.08-2.97-7.32-6.77-9.72-11.37-2.4-4.61-3.552-10.08-3.456-16.42h21.888Zm78.048-68.69h22.608v39.46h41.616v-39.46h22.608v102.82h-22.608v-44.35H592.85v44.35h-22.608V542.22Z"/>
</svg>
